<svg height="106" viewBox="0 0 243 106" width="243" xmlns="http://www.w3.org/2000/svg"><g fill="none" fill-rule="evenodd"><g fill-rule="nonzero"><path d="m0 0v72.6072607l27.1038462 26.4026403h59.8961538v-99.009901z" fill="#fff"/><path d="m87 99.009901v-99.009901h-87" fill="#e9f4f3"/><path d="m87 46.5346535v-46.5346535h-87" fill="#d4e8e5"/><path d="m54 100-27-26.7326733v26.5666319h27z" fill="#d6e5e3"/><path d="m0 73.2673267 27 26.7326733v-26.7326733z" fill="#8ac4bd"/><path d="m11 83.5365854 17 16.4634146v-26.7326733l-14.2525253 12.5513161z" fill="#67a59c"/><path d="m74 69.9543031-17.0837438 1.3328256-16.9162562-1.3328256 16.9162562-33.3206397z" fill="#1589ad"/><path d="m57 36.6336634 17 33.3206397-17 1.3328256" fill="#035670"/><path d="m56.5 65.3465347 9.5-9.7002944-5.2413793-10.7037731-4.2586207-4.3484078-4.0948276 4.3484078-5.4051724 10.7037731z" fill="#1ea4c4"/><path d="m57 65.3465347 10-9.7002944-5.5172414-10.7037731-4.4827586-4.3484078" fill="#066b93"/><path d="m64 69.1489019-25 2.1382268-25-2.1382268 25-48.3568227z" fill="#1589ad"/><path d="m39 20.7920792 25 48.3568227-25 2.1382268" fill="#057091"/><path d="m38.5847953 61.3861386 14.4152047-13.89772-8.1403509-15.532746-6.2748538-6.2130983-6.2748538 6.2130983-8.3099415 15.532746z" fill="#1ea4c4"/><path d="m39 61.3861386 14-13.89772-7.9058824-15.532746-6.0941176-6.2130983" fill="#1290ad"/><path d="m42.5540541 45.3071623 4.2229729 4.1977882 4.222973-4.1977882-12.5-24.5150831-12.5 24.5150831 4.222973 4.1977882 4.2229729-4.1977882 4.0540541 4.1977882z" fill="#9adfef"/><path d="m39 49.5049505 3.8918919-4.1977882 4.054054 4.1977882 4.0540541-4.1977882-12-24.5150831" fill="#7dd4e2"/><path d="m14 68.316832h60v2.970297h-60z" fill="#057091"/><ellipse cx="66" cy="28.712871" fill="#f98d2b" rx="8" ry="7.920792"/><path d="m71.6521739 21.7821782c3.1304348 3.0849723 3.1304348 8.2265929 0 11.4829526-3.1304348 3.2563596-8.3478261 3.0849723-11.6521739 0" fill="#dd6e12"/></g><text fill="#4a4a4a" font-family="ModernistOne, Modernist One" font-size="57"><tspan x="93" y="42">Yii2</tspan> <tspan x="93" y="92">Gallery</tspan></text></g></svg>